<svg xmlns="http://www.w3.org/2000/svg" width="236" height="492" viewBox="0 0 236 492" fill="none">
  <path fill-rule="evenodd" clip-rule="evenodd" d="M2.29967 24.8667C0.608292 30.0933 0.608292 36.5514 0.608292 49.4677V442.704C0.608292 455.621 0.608292 462.079 2.29967 467.305C5.71806 477.869 13.9665 486.15 24.4872 489.582C29.6927 491.281 36.1249 491.281 48.9893 491.281H186.645C199.509 491.281 205.941 491.281 211.147 489.582C221.667 486.15 229.916 477.869 233.334 467.305C235.026 462.079 235.026 455.621 235.026 442.704V49.4677C235.026 36.5514 235.026 30.0933 233.334 24.8667C229.916 14.3035 221.667 6.02185 211.147 2.58966C205.941 0.891449 199.509 0.891449 186.645 0.891449H48.9893C36.1249 0.891449 29.6927 0.891449 24.4872 2.58966C13.9665 6.02185 5.71806 14.3035 2.29967 24.8667ZM58.7805 12.1681V14.7704L58.8216 14.7691L58.7803 15.0595C58.7803 21.9262 64.3244 27.4927 71.1635 27.4927H164.47C171.309 27.4927 176.853 21.9262 176.853 15.0595L176.812 14.7691L176.853 14.7704V12.1681C176.853 10.4115 178.271 8.9875 180.021 8.9875L187.439 8.98748C199.037 8.98748 204.835 8.98748 209.46 10.7421C216.729 13.5 222.467 19.2613 225.214 26.5598C226.962 31.2032 226.962 37.0254 226.962 48.6697V443.503C226.962 455.147 226.962 460.969 225.214 465.612C222.467 472.911 216.729 478.672 209.46 481.43C204.835 483.185 199.037 483.185 187.439 483.185H48.194C36.5965 483.185 30.7978 483.185 26.173 481.43C18.9039 478.672 13.1657 472.911 10.4189 465.612C8.6714 460.969 8.6714 455.147 8.6714 443.503V48.6697C8.6714 37.0254 8.6714 31.2032 10.4189 26.5598C13.1657 19.2613 18.9039 13.5 26.173 10.7421C30.7978 8.98748 36.5965 8.98748 48.194 8.98748L55.6127 8.9875C57.3622 8.9875 58.7805 10.4115 58.7805 12.1681Z" fill="#121515"/>
</svg>